<?xml version="1.0" encoding="UTF-8" standalone="no"?>
<svg
   version="1.0"
   width="1024.000000pt"
   height="1024.000000pt"
   viewBox="0 0 1024.000000 1024.000000"
   preserveAspectRatio="xMidYMid meet"
   id="svg6"
   sodipodi:docname="moneybara.svg"
   inkscape:version="1.3.2 (091e20e, 2023-11-25)"
   xmlns:inkscape="http://www.inkscape.org/namespaces/inkscape"
   xmlns:sodipodi="http://sodipodi.sourceforge.net/DTD/sodipodi-0.dtd"
   xmlns="http://www.w3.org/2000/svg"
   xmlns:svg="http://www.w3.org/2000/svg">
  <defs
     id="defs6" />
  <sodipodi:namedview
     id="namedview6"
     pagecolor="#ffffff"
     bordercolor="#000000"
     borderopacity="0.25"
     inkscape:showpageshadow="2"
     inkscape:pageopacity="0.0"
     inkscape:pagecheckerboard="0"
     inkscape:deskcolor="#d1d1d1"
     inkscape:document-units="pt"
     inkscape:zoom="0.37920582"
     inkscape:cx="475.9948"
     inkscape:cy="648.72422"
     inkscape:window-width="1224"
     inkscape:window-height="831"
     inkscape:window-x="217"
     inkscape:window-y="25"
     inkscape:window-maximized="0"
     inkscape:current-layer="g6"
     showguides="true">
    <sodipodi:guide
       position="203.71522,820.28475"
       orientation="1,0"
       id="guide9"
       inkscape:locked="false" />
    <sodipodi:guide
       position="820.79433,820.28475"
       orientation="1,0"
       id="guide10"
       inkscape:locked="false" />
  </sodipodi:namedview>
  <g
     transform="matrix(0.13691523,0,0,-0.13691523,-165.27611,1218.8345)"
     fill="#000000"
     stroke="none"
     id="g6"
     style="fill:#cf8916;fill-opacity:1">
    <path
       d="m 4001,7388 c -52,-18 -135,-100 -160,-158 l -22,-51 -32,21 c -75,50 -119,64 -202,64 -63,0 -89,-5 -123,-22 -59,-31 -118,-87 -150,-141 -24,-40 -27,-57 -27,-131 0,-65 5,-96 21,-131 28,-59 87,-125 136,-150 21,-11 38,-25 38,-32 0,-8 -15,-31 -33,-53 -95,-112 -194,-295 -230,-423 -22,-76 -22,-83 -25,-1238 -2,-989 0,-1172 12,-1232 17,-82 89,-232 148,-309 105,-136 284,-240 451,-262 45,-6 479,-7 1167,-2 l 1095,8 80,27 c 162,54 264,136 343,275 77,136 83,164 89,412 4,142 9,217 17,222 6,4 27,8 47,8 30,0 45,8 79,42 101,101 129,235 96,464 -21,154 -65,204 -188,219 l -58,7 v 47 c 0,26 -7,73 -15,106 -39,150 -133,255 -296,333 l -96,46 60,45 c 33,25 75,57 94,71 18,14 44,42 58,63 14,20 30,37 35,37 5,0 22,19 36,43 15,23 40,61 56,85 50,72 108,228 118,317 15,125 12,380 -5,453 -56,237 -251,429 -544,534 -49,18 -97,22 -366,30 -170,5 -477,6 -680,3 -204,-3 -416,-3 -471,1 l -101,7 -16,51 c -36,114 -125,229 -211,273 -56,29 -170,39 -225,21 z m 137,-144 c 73,-30 141,-120 142,-186 v -28 h -174 -174 l -11,44 c -6,25 -11,47 -11,51 0,9 103,111 125,123 28,16 59,15 103,-4 z m -477,-135 c 43,-15 95,-63 120,-111 10,-20 28,-81 40,-135 17,-81 26,-103 50,-125 16,-16 40,-28 54,-28 32,0 40,29 30,114 l -6,63 58,4 c 32,3 474,4 983,4 844,0 930,-2 985,-17 220,-63 372,-174 445,-323 40,-82 50,-157 50,-386 0,-231 -6,-258 -87,-392 -93,-154 -236,-284 -374,-337 -74,-29 -210,-39 -504,-40 -327,0 -412,-15 -541,-91 -84,-49 -207,-170 -270,-264 -202,-304 -263,-614 -251,-1277 5,-302 7,-326 42,-476 l 6,-23 -338,6 c -369,7 -393,11 -519,70 -86,41 -187,138 -232,222 -17,32 -41,92 -53,133 l -22,75 -5,1135 c -4,1168 -4,1172 35,1294 16,51 72,154 97,179 8,7 23,31 34,53 11,21 43,62 69,91 38,39 58,53 88,58 68,11 85,22 85,53 0,45 -33,78 -130,127 -71,37 -97,57 -130,100 -35,46 -41,60 -42,103 0,27 7,63 16,81 31,60 133,88 217,60 z M 6028,5200 c 149,-10 206,-29 287,-96 58,-47 105,-140 112,-223 l 6,-62 -69,7 c -38,4 -193,8 -344,8 l -275,1 -57,-27 c -135,-63 -228,-210 -228,-359 0,-143 126,-307 275,-360 48,-17 81,-19 292,-18 131,0 277,4 326,7 l 87,7 v -105 c -2,-338 -38,-484 -145,-578 -53,-46 -162,-95 -250,-111 -39,-7 -297,-12 -742,-14 l -683,-2 -5,45 c -3,25 -10,77 -16,115 -16,110 -23,540 -10,755 20,364 42,459 151,672 59,114 125,193 227,270 102,77 99,77 538,77 215,0 450,-4 523,-9 z m 551,-517 c 90,-9 96,-21 96,-193 -1,-98 -5,-150 -18,-192 -9,-31 -21,-59 -25,-62 -4,-2 -199,-6 -432,-7 l -425,-3 -48,23 c -77,37 -127,126 -127,225 0,82 67,176 145,204 33,12 729,16 834,5 z"
       id="path1"
       style="fill:#cf8916;fill-opacity:1" />
    <circle
       style="fill:#8a5d0f;fill-opacity:1;stroke-width:5.47784"
       id="path2"
       cx="4587.4043"
       cy="-6403.0278"
       r="187.79233"
       transform="scale(1,-1)" />
    <circle
       style="fill:#8a5d0f;fill-opacity:1;stroke-width:5.47784"
       id="path3"
       cx="6140.3022"
       cy="-6020.2202"
       r="122.78729"
       transform="scale(1,-1)" />
    <circle
       style="fill:#8a5d0f;fill-opacity:1;stroke-width:5.47784"
       id="path4"
       cx="5938.0645"
       cy="-4474.5449"
       r="93.896164"
       transform="scale(1,-1)" />
  </g>
</svg>
